# xmcd
#
# Track frame offsets:
#	150
#	21530
#	29138
#	38117
#	45582
#	51944
#	63929
#	72871
#	80802
#	87925
#	93784
#	100139
#	107405
#	113854
#	124985
#	136849
#	144045
#	150264
#	158650
#	165329
#	172725
#	181275
#	188700
#	197216
#	203791
#	210416
#	220288
#	229140
#	236318
#	242804
#	251824
#	260645
#	270802
#
# Disc length: 3797 seconds
#
# Revision: 1
# Processed by: cddbd v1.5.1PL0 Copyright (c) Steve Scherf et al.
# Submitted via: audiograbber 1.83.01
#
DISCID=bd0ed321
DTITLE=Trent Brunner, Fred Buckley, Jeanne Buckley - The Joys Of Fiddle Music
DYEAR=1997
DGENRE=Instrumental
TTITLE0=Trent Bruner - INTRODUCTION, TUNING SEGMENT
TTITLE1=Trent Bruner - Don Messer's Breakdown (Don Messer - C)
TTITLE2=Trent Bruner - Don Messer's Breakdown - Practice Tempo
TTITLE3=Trent Bruner - The Rakes Of Kildare (Jig - Am)
TTITLE4=Trent Bruner - The Rakes Of Kildare - Practice Tempo
TTITLE5=Trent Bruner - Westphalia Waltz (G)
TTITLE6=Trent Bruner - Westphalia Waltz - Practice Tempo
TTITLE7=Trent Bruner - Put Your Little Foot (Waltz - G)
TTITLE8=Trent Bruner - Put Your Little Foot - Practice Tempo
TTITLE9=Trent Bruner - Heel Ahd Toe Polka (G)
TTITLE10=Trent Bruner - Heel And Toe Polka - Practice Tempo
TTITLE11=Trent Bruner - Swallowtail Jig (Em)
TTITLE12=Trent Bruner - Swallowtail Jig - Practice Tempo
TTITLE13=Trent Bruner - Bonapart's Retreat (D)
TTITLE14=Trent Bruner - Bonapart's Retreat - Practice Tempo
TTITLE15=Trent Bruner - Jonah's First Change (Jig - D)
TTITLE16=Trent Bruner - Jonah's First Change - Practice Tempo
TTITLE17=Trent Bruner - On The Road To Boston (D)
TTITLE18=Trent Bruner - On The Road To Boston - Practice Tempo
TTITLE19=Trent Bruner - Woodchopper's Breakdown (D)
TTITLE20=Trent Bruner - Woodchopper's Breakdown - Practice Tempo
TTITLE21=Trent Bruner - Soldier's Joy (D)
TTITLE22=Trent Bruner - Soldier's Joy - Practice Tempo
TTITLE23=Trent Bruner - Chicken Reel (D)
TTITLE24=Trent Bruner - Chicken Reel - Practice Tempo
TTITLE25=Trent Bruner - Hi-Lo Schottische (D and A)
TTITLE26=Trent Bruner - Hi-Lo Schottische - Practice Tempo
TTITLE27=Trent Bruner - Long Eared Mule (D and A)
TTITLE28=Trent Bruner - Long Eared Mule - Practice Tempo
TTITLE29=Trent Bruner - Spanish Two Step (Bob Wills, Tommy Duncan - A)
TTITLE30=Trent Bruner - Spanish Two Step - Practice Tempo
TTITLE31=Trent Bruner - Clarinet Polka (G and D and A)
TTITLE32=Trent Bruner - Clarinet Polka - Practice Tempo
EXTD=
EXTT0=
EXTT1=
EXTT2=
EXTT3=
EXTT4=
EXTT5=
EXTT6=
EXTT7=
EXTT8=
EXTT9=
EXTT10=
EXTT11=
EXTT12=
EXTT13=
EXTT14=
EXTT15=
EXTT16=
EXTT17=
EXTT18=
EXTT19=
EXTT20=
EXTT21=
EXTT22=
EXTT23=
EXTT24=
EXTT25=
EXTT26=
EXTT27=
EXTT28=
EXTT29=
EXTT30=
EXTT31=
EXTT32=
PLAYORDER=
